<mxfile compressed="false" version="17.4.2" type="device">
<diagram id="a" name="Page-1">
  <mxGraphModel dx="532" dy="766" grid="1" gridSize="10" guides="1" tooltips="1" connect="1" arrows="1" fold="1" page="1" pageScale="1" pageWidth="413" pageHeight="583" math="0" shadow="0">
    <root>
      <mxCell id="0" />
      <mxCell id="1" parent="0" />
      <mxCell id="box1" value="feature" style="rounded=0;whiteSpace=wrap;html=1;fillColor=#ffe6cc;strokeColor=#d79b00;" parent="1" vertex="1">
        <mxGeometry x="320" y="20" width="80" height="20" as="geometry" />
      </mxCell>
    <mxCell id="l7" value="" style="endArrow=none;html=1;rounded=1;exitX=0.5;exitY=0;exitDx=0;exitDy=0;entryX=0;entryY=0.5;entryDx=0;entryDy=0;strokeColor=#00CC00;" edge="1" parent="1" source="b3" target="b4">
      <mxGeometry width="50" height="50" relative="1" as="geometry">
        <mxPoint x="30" y="70" as="sourcePoint" />
        <mxPoint x="60" y="30" as="targetPoint" />
        <Array as="points">
          <mxPoint x="30" y="30" />
        </Array>
      </mxGeometry>
    </mxCell>
      <mxCell id="b4" value="f" style="ellipse;whiteSpace=wrap;html=1;fillColor=#ffe6cc;strokeColor=#d79b00;" vertex="1" parent="1">
        <mxGeometry x="60" y="20" width="20" height="20" as="geometry" />
      </mxCell>
      <mxCell id="box2" value="main" style="rounded=0;whiteSpace=wrap;html=1;fillColor=#dae8fc;strokeColor=#6c8ebf;" parent="1" vertex="1">
        <mxGeometry x="320" y="50" width="80" height="20" as="geometry" />
      </mxCell>
    <mxCell id="l8" value="" style="endArrow=none;html=1;rounded=1;entryX=0;entryY=0.5;entryDx=0;entryDy=0;" edge="1" parent="1" target="b3">
      <mxGeometry width="50" height="50" relative="1" as="geometry">
        <mxPoint x="0" y="60" as="sourcePoint" />
        <mxPoint x="20" y="60" as="targetPoint" />
      </mxGeometry>
    </mxCell>
      <mxCell id="b3" value="a" style="ellipse;whiteSpace=wrap;html=1;fillColor=#dae8fc;strokeColor=#6c8ebf;" vertex="1" parent="1">
        <mxGeometry x="20" y="50" width="20" height="20" as="geometry" />
      </mxCell>
    <mxCell id="l9" value="" style="endArrow=none;html=1;rounded=1;exitX=1;exitY=0.5;exitDx=0;exitDy=0;entryX=0;entryY=0.5;entryDx=0;entryDy=0;strokeColor=#FF0000;" edge="1" parent="1" source="b3" target="b5">
      <mxGeometry width="50" height="50" relative="1" as="geometry">
        <mxPoint x="40" y="60" as="sourcePoint" />
        <mxPoint x="100" y="60" as="targetPoint" />
      </mxGeometry>
    </mxCell>
      <mxCell id="b5" value="b" style="ellipse;whiteSpace=wrap;html=1;fillColor=#dae8fc;strokeColor=#6c8ebf;" vertex="1" parent="1">
        <mxGeometry x="100" y="50" width="20" height="20" as="geometry" />
      </mxCell>
    <mxCell id="l10" value="" style="endArrow=none;html=1;rounded=1;exitX=1;exitY=0.5;exitDx=0;exitDy=0;entryX=0;entryY=0.5;entryDx=0;entryDy=0;" edge="1" parent="1" source="b5" target="b6">
      <mxGeometry width="50" height="50" relative="1" as="geometry">
        <mxPoint x="120" y="60" as="sourcePoint" />
        <mxPoint x="140" y="60" as="targetPoint" />
      </mxGeometry>
    </mxCell>
    <mxCell id="l11" value="" style="endArrow=none;html=1;rounded=1;exitX=1;exitY=0.5;exitDx=0;exitDy=0;entryX=0;entryY=0.5;entryDx=0;entryDy=0;" edge="1" parent="1" source="b4" target="b6">
      <mxGeometry width="50" height="50" relative="1" as="geometry">
        <mxPoint x="80" y="30" as="sourcePoint" />
        <mxPoint x="140" y="60" as="targetPoint" />
        <Array as="points">
          <mxPoint x="130" y="30" />
          <mxPoint x="130" y="60" />
        </Array>
      </mxGeometry>
    </mxCell>
      <mxCell id="b6" value="c" style="ellipse;whiteSpace=wrap;html=1;fillColor=#dae8fc;strokeColor=#6c8ebf;" vertex="1" parent="1">
        <mxGeometry x="140" y="50" width="20" height="20" as="geometry" />
      </mxCell>
    <mxCell id="l12" value="" style="endArrow=none;html=1;rounded=1;exitX=1;exitY=0.5;exitDx=0;exitDy=0;entryX=0;entryY=0.5;entryDx=0;entryDy=0;" edge="1" parent="1" source="b6" target="box2">
      <mxGeometry width="50" height="50" relative="1" as="geometry">
        <mxPoint x="160" y="60" as="sourcePoint" />
        <mxPoint x="320" y="60" as="targetPoint" />
      </mxGeometry>
    </mxCell>
      </root>
    </mxGraphModel>
  </diagram>
</mxfile>